<!--Licensed to the Apache Software Foundation (ASF) under one-->
<!--or more contributor license agreements.  See the NOTICE file-->
<!--distributed with this work for additional information-->
<!--regarding copyright ownership.  The ASF licenses this file-->
<!--to you under the Apache License, Version 2.0 (the-->
<!--"License"); you may not use this file except in compliance-->
<!--with the License.  You may obtain a copy of the License at-->

<!--  http://www.apache.org/licenses/LICENSE-2.0-->

<!--Unless required by applicable law or agreed to in writing,-->
<!--software distributed under the License is distributed on an-->
<!--"AS IS" BASIS, WITHOUT WARRANTIES OR CONDITIONS OF ANY-->
<!--KIND, either express or implied.  See the License for the-->
<!--specific language governing permissions and limitations-->
<!--under the License.-->

<svg width="115" height="33" viewBox="0 0 115 33" fill="none" xmlns="http://www.w3.org/2000/svg">
<path d="M26.5487 12.6924C26.552 12.4144 26.6631 12.1487 26.8582 11.9521C27.0533 11.7554 27.317 11.6435 27.593 11.6401H29.024C29.2999 11.6435 29.5636 11.7554 29.7587 11.9521C29.9538 12.1487 30.0649 12.4144 30.0682 12.6924V22.9816C30.0682 24.9822 30.5133 26.4762 31.4036 27.4635C32.2937 28.4509 33.5891 28.9458 35.2896 28.9483C36.9153 28.9483 38.1916 28.4534 39.1187 27.4635C40.0457 26.4737 40.5122 24.9797 40.5182 22.9816V12.6924C40.5226 12.4147 40.634 12.1495 40.8291 11.9531C41.0238 11.7567 41.2871 11.6444 41.5627 11.6401H42.9935C43.27 11.6425 43.534 11.7542 43.7295 11.951C43.9247 12.1478 44.0357 12.4141 44.0381 12.6924V30.8543C44.0357 31.1326 43.9247 31.3989 43.7295 31.5957C43.534 31.7925 43.27 31.9041 42.9935 31.9066H41.5627C41.2871 31.9023 41.0238 31.79 40.8291 31.5936C40.634 31.3972 40.5226 31.132 40.5182 30.8543V29.6461C39.9387 30.3742 39.2307 30.9883 38.4298 31.4574C37.5225 32.0142 36.2824 32.2926 34.7095 32.2926C33.5726 32.3061 32.4437 32.1008 31.3833 31.6876C30.3939 31.3072 29.4997 30.712 28.7644 29.9441C28.0291 29.1762 27.4707 28.2545 27.1288 27.2445C26.7257 26.0628 26.5294 24.8194 26.5487 23.5699V12.6924Z" fill="#6C00EA"/>
<path d="M51.8046 7.50912C51.8014 7.78719 51.6904 8.05287 51.4953 8.24948C51.3002 8.44612 51.0366 8.55807 50.7605 8.56144H48.5504C48.2764 8.55519 48.0155 8.442 47.8228 8.24567C47.6301 8.04934 47.5203 7.78526 47.5171 7.50912V5.28205C47.5203 5.00403 47.6317 4.7383 47.8268 4.5417C48.0219 4.34509 48.2856 4.23314 48.5612 4.22974H50.7717C51.0474 4.23314 51.311 4.34509 51.5061 4.5417C51.7013 4.7383 51.8123 5.00403 51.8159 5.28205L51.8046 7.50912ZM51.418 30.8546C51.4148 31.1326 51.3034 31.3983 51.1083 31.5949C50.9132 31.7915 50.6495 31.9035 50.3739 31.9068H48.9427C48.6666 31.9035 48.403 31.7915 48.2078 31.5949C48.0127 31.3983 47.9017 31.1326 47.8985 30.8546V12.6927C47.9017 12.4146 48.0127 12.1489 48.2078 11.9523C48.403 11.7557 48.6666 11.6437 48.9427 11.6404H50.3739C50.6495 11.6437 50.9132 11.7557 51.1083 11.9523C51.3034 12.1489 51.4148 12.4146 51.418 12.6927V30.8546Z" fill="#6C00EA"/>
<path d="M58.8054 30.8546C58.8022 31.1326 58.6912 31.3983 58.496 31.5949C58.3009 31.7916 58.0373 31.9035 57.7612 31.9069H56.33C56.0544 31.9035 55.7907 31.7916 55.5956 31.5949C55.4005 31.3983 55.2891 31.1326 55.2859 30.8546V5.28767C55.2891 5.0096 55.4005 4.74392 55.5956 4.54731C55.7907 4.35066 56.0544 4.23872 56.33 4.23535H57.7612C58.0373 4.23872 58.3009 4.35066 58.496 4.54731C58.6912 4.74392 58.8022 5.0096 58.8054 5.28767V30.8546Z" fill="#6C00EA"/>
<path d="M70.4861 11.2507C72.0823 11.2507 73.3585 11.5297 74.3149 12.0877C75.1479 12.5436 75.8835 13.1596 76.4809 13.9009V5.28766C76.4845 5.0096 76.5955 4.74392 76.7906 4.54731C76.9857 4.35066 77.2494 4.23872 77.5254 4.23535H78.9562C79.2323 4.23872 79.4959 4.35066 79.691 4.54731C79.8862 4.74392 79.9972 5.0096 80.0008 5.28766V30.8546C79.9972 31.1326 79.8862 31.3983 79.691 31.5949C79.4959 31.7916 79.2323 31.9035 78.9562 31.9069H77.5254C77.2494 31.9035 76.9857 31.7916 76.7906 31.5949C76.5955 31.3983 76.4845 31.1326 76.4809 30.8546V29.6464C75.8851 30.4177 75.131 31.0507 74.2708 31.5023C73.3204 32.0293 72.0587 32.2929 70.4861 32.2929C69.3273 32.3027 68.1778 32.084 67.1028 31.6489C66.0743 31.2301 65.1448 30.5978 64.3751 29.793C63.5761 28.9476 62.9459 27.9552 62.5188 26.87C62.0332 25.6397 61.7563 24.336 61.699 23.0134C61.6734 22.6236 61.6602 22.2011 61.6602 21.7458C61.6602 21.2905 61.6734 20.8685 61.699 20.4801C61.7535 19.1572 62.0284 17.853 62.5112 16.6216C62.9395 15.5457 63.5725 14.5646 64.3751 13.7339C65.1496 12.9409 66.0783 12.3173 67.1028 11.9021C68.1774 11.4645 69.3269 11.2432 70.4861 11.2507ZM76.4809 23.4495C76.5069 23.0598 76.5198 22.5463 76.5198 21.9091C76.5198 21.2719 76.5069 20.7591 76.4809 20.3706C76.4036 18.5258 75.8558 17.103 74.8381 16.102C73.82 15.1011 72.4986 14.6012 70.8727 14.6024C69.1771 14.6024 67.8381 15.1481 66.856 16.2393C65.8736 17.3306 65.3323 18.8116 65.2313 20.6824C65.2057 21.4099 65.2057 22.1374 65.2313 22.8649C65.3347 24.7356 65.876 26.2167 66.856 27.3079C67.8357 28.3992 69.1747 28.9473 70.8727 28.9523C72.469 28.9523 73.784 28.4574 74.8177 27.4675C75.8518 26.4777 76.406 25.1384 76.4809 23.4495Z" fill="#6C00EA"/>
<path d="M82.9395 19.8247C83.0361 18.6665 83.3266 17.5332 83.7994 16.4729C84.2433 15.464 84.8587 14.5407 85.6172 13.7448C86.3793 12.9554 87.294 12.332 88.3045 11.913C89.4151 11.4586 90.6051 11.2333 91.8039 11.2504C93.08 11.2286 94.3478 11.46 95.5353 11.9316C96.6023 12.3689 97.5583 13.0418 98.3328 13.9007C99.1333 14.8049 99.7391 15.8666 100.112 17.0186C100.539 18.3362 100.748 19.7156 100.731 21.1016V22.1539C100.728 22.4319 100.616 22.6976 100.421 22.8943C100.226 23.0909 99.9623 23.2028 99.6867 23.2062H86.3781V23.44C86.4298 25.2069 86.9642 26.5641 87.9823 27.5119C89 28.4596 90.2714 28.9397 91.7963 28.9521C93.2147 28.9521 94.278 28.7504 94.9864 28.347C95.6295 27.9969 96.2109 27.543 96.7085 27.0034C96.866 26.8333 97.0487 26.6887 97.2498 26.5747C97.4706 26.4844 97.7082 26.4445 97.9462 26.4577H99.1065C99.3942 26.4592 99.6706 26.5707 99.8798 26.7695C99.9884 26.8562 100.071 26.9714 100.119 27.1023C100.167 27.2333 100.177 27.375 100.151 27.5119C100.038 28.0645 99.8141 28.5881 99.4931 29.0504C99.0748 29.6666 98.5428 30.1958 97.9257 30.6094C97.14 31.1393 96.2794 31.5466 95.3731 31.8176C94.2119 32.1585 93.0055 32.3187 91.7963 32.2927C90.6015 32.3112 89.4159 32.0786 88.3157 31.6097C87.306 31.1704 86.3921 30.5346 85.6264 29.739C84.8491 28.9237 84.2249 27.9729 83.7849 26.9328C83.3105 25.8127 83.0229 24.6212 82.9339 23.4066C82.8069 22.216 82.8089 21.015 82.9395 19.8247ZM86.3817 19.9416H97.2482V19.8247C97.2482 18.2398 96.7514 16.9728 95.7581 16.0238C94.7648 15.0749 93.4434 14.601 91.7947 14.6022C91.0819 14.5963 90.3739 14.7221 89.706 14.9734C89.077 15.2106 88.4992 15.5679 88.0044 16.0257C87.5071 16.4907 87.1121 17.0552 86.844 17.683C86.554 18.3602 86.3957 19.0873 86.3781 19.8247L86.3817 19.9416Z" fill="#6C00EA"/>
<path d="M113.688 11.6401C113.965 11.6411 114.231 11.752 114.429 11.9488C114.626 12.1457 114.738 12.4128 114.741 12.6924V13.9396C114.738 14.2176 114.627 14.4833 114.432 14.6799C114.237 14.8766 113.973 14.9885 113.697 14.9919H111.445C108.485 14.9919 107.006 16.4859 107.006 19.4739V30.8543C107.003 31.1323 106.892 31.398 106.696 31.5946C106.501 31.7912 106.238 31.9032 105.962 31.9065H104.531C104.255 31.9032 103.991 31.7912 103.796 31.5946C103.601 31.398 103.49 31.1323 103.486 30.8543V12.6924C103.49 12.4144 103.601 12.1487 103.796 11.9521C103.991 11.7554 104.255 11.6435 104.531 11.6401H105.962C106.238 11.6435 106.501 11.7554 106.696 11.9521C106.892 12.1487 107.003 12.4144 107.006 12.6924V13.9006C107.459 13.1756 108.095 12.584 108.848 12.1858C109.568 11.822 110.51 11.6401 111.671 11.6401H113.688Z" fill="#6C00EA"/>
<path fill-rule="evenodd" clip-rule="evenodd" d="M12.7505 0H0V31.9289H13.2864L13.5277 31.9271L13.7671 31.9197L14.0047 31.9104L14.2405 31.8974L14.4744 31.8789L14.7045 31.8566L14.9329 31.8325L15.1613 31.8028L15.3842 31.7693L15.607 31.7322L15.8262 31.6914L16.0435 31.6469L16.259 31.5967L16.4708 31.5448L16.6808 31.4891L16.8871 31.4279L17.0915 31.3648L17.2941 31.2961L17.493 31.2237L17.6882 31.1495L17.8816 31.0697L18.0731 30.9862L18.261 30.9008L18.4452 30.8098L18.6275 30.7152L18.8043 30.6168L18.9811 30.5147L19.1524 30.4108L19.3218 30.3013L19.4876 30.1881L19.6515 30.0712L19.8099 29.9506L19.9665 29.8281L20.1193 29.7L20.2685 29.5682L20.414 29.4328L20.5577 29.2954L20.6958 29.1525L20.8302 29.0077L20.9629 28.8574L21.0899 28.7052L21.2152 28.5475L21.3349 28.3879L21.4509 28.2246L21.5651 28.0557L21.6738 27.885L21.7787 27.7105L21.8782 27.5323L21.9758 27.3523L22.0697 27.1667L22.1581 26.9774L22.2429 26.7844L22.322 26.5895L22.3976 26.3909L22.4694 26.1886L22.5376 25.9826L22.602 25.7729L22.6591 25.5595L22.7143 25.3424L22.7641 25.1234L22.8083 24.8988L22.8506 24.6724L22.8856 24.4423L22.917 24.2084L22.9446 23.9708L22.9667 23.7314L22.9833 23.4865L22.9961 23.2396L23.0035 22.9891L23.0053 22.7348L22.9998 22.4212L22.9869 22.1131L22.9648 21.8143L22.9353 21.5229L22.8967 21.2408L22.8488 20.9661L22.7954 20.6989L22.7346 20.4391L22.6665 20.1885L22.5928 19.9435L22.5118 19.706L22.4234 19.4759L22.3313 19.2531L22.2318 19.0379L22.1287 18.83L22.02 18.6277L21.9058 18.4328L21.788 18.2435L21.6664 18.0617L21.5393 17.8872L21.4104 17.7183L21.2759 17.555L21.1415 17.3972L21.0015 17.2469L20.8616 17.1021L20.7179 16.963L20.5724 16.8293L20.425 16.7013L20.2759 16.5788L20.1267 16.46L19.9775 16.3486L19.8265 16.2429L19.6755 16.1408L19.5244 16.0443L19.2242 15.8642L18.9277 15.7028L18.6367 15.5599L18.7712 15.4931L19.0511 15.339L19.3384 15.1553L19.6312 14.9456L19.7786 14.8287L19.9259 14.708L20.0733 14.5781L20.2206 14.4426L20.3661 14.2997L20.5116 14.1513L20.6534 13.9954L20.7953 13.8321L20.9334 13.665L21.0678 13.4887L21.1986 13.3068L21.3275 13.1194L21.4509 12.9245L21.5706 12.7241L21.6867 12.5162L21.7953 12.3028L21.8985 12.0838L21.9961 11.8574L22.0882 11.6235L22.171 11.386L22.2484 11.141L22.3184 10.8904L22.381 10.6343L22.4325 10.3708L22.4768 10.1035L22.5118 9.82702L22.5376 9.54675L22.5541 9.26096L22.5596 8.96959L22.556 8.73572L22.5504 8.50373L22.5394 8.27547L22.5247 8.0509L22.5044 7.82632L22.4805 7.60548L22.4528 7.38835L22.4197 7.17308L22.3828 6.95964L22.3405 6.74993L22.2963 6.54206L22.2466 6.33604L22.1913 6.13374L22.1342 5.93517L22.0716 5.73844L22.0053 5.54544L21.9353 5.35428L21.8598 5.16497L21.7824 4.98126L21.6977 4.79752L21.6111 4.61934L21.5209 4.44305L21.4251 4.26859L21.3275 4.09967L21.2244 3.9308L21.1176 3.76748L21.0071 3.60602L20.891 3.44827L20.7731 3.29423L20.6497 3.14204L20.5227 2.99357L20.3937 2.84881L20.2593 2.70591L20.1212 2.56857L19.9793 2.43309L19.8339 2.30132L19.6847 2.17326L19.5299 2.04706L19.3734 1.92643L19.2132 1.80765L19.0493 1.69258L18.8798 1.58123L18.7085 1.47359L18.5336 1.36965L18.3549 1.26944L18.1726 1.17293L17.9847 1.07828L17.795 0.989197L17.6017 0.903826L17.4046 0.820307L17.2057 0.742361L17.0012 0.668126L16.7931 0.5976L16.5832 0.530789L16.3677 0.467687L16.1504 0.408301L15.9293 0.352622L15.7047 0.300656L15.4763 0.252403L15.246 0.209717L15.0103 0.170743L14.7727 0.135481L14.5315 0.10393L14.2865 0.076092L14.0378 0.0538213L13.7874 0.0334062L13.5332 0.018559L13.2754 0.00927951L13.0157 0.0018559L12.7505 0Z" fill="#6C00EA"/>
</svg>
